
      <svg data-logo="logo" xmlns="http://www.w3.org/2000/svg" viewBox="0 0 173 43">
        <g id="logogram" transform="translate(0, 1) rotate(0) "><path d="M40.207 22.1241H33.0426C26.7844 22.1241 21.7112 27.1973 21.7112 33.4555V40.6199C31.5885 39.8876 39.4747 32.0014 40.207 22.1241Z" fill="#775732"/><path d="M18.7029 40.6199V33.4555C18.7029 27.1973 13.6296 22.1241 7.37148 22.1241H0.207031C0.939394 32.0014 8.8256 39.8876 18.7029 40.6199Z" fill="#775732"/><path d="M40.207 19.1158C39.4747 9.23851 31.5885 1.3523 21.7112 0.619934V7.78438C21.7112 14.0425 26.7844 19.1158 33.0426 19.1158H40.207Z" fill="#775732"/><path d="M18.7029 0.619934C8.8256 1.3523 0.939394 9.23851 0.207031 19.1158H7.37148C13.6296 19.1158 18.7029 14.0425 18.7029 7.78438V0.619934Z" fill="#775732"/><path d="M13.7722 20.6197C16.5524 19.2306 18.8182 16.9648 20.2073 14.1846C21.5963 16.9648 23.8621 19.2306 26.6423 20.6197C23.8621 22.0087 21.5963 24.2745 20.2073 27.0547C18.8182 24.2745 16.5524 22.0087 13.7722 20.6197Z" fill="#CA9352"/></g>
        <g id="logotype" transform="translate(47, 9)"><path fill="#775732" d="M7.19 0.92L7.19 0.22Q8.07 0.25 9.55 0.29Q11.04 0.32 12.51 0.32L12.51 0.32Q14.19 0.32 15.77 0.29Q17.34 0.25 18.01 0.25L18.01 0.25Q22.87 0.25 25.29 2.18Q27.70 4.10 27.70 7.15L27.70 7.15Q27.70 8.41 27.21 9.79Q26.72 11.17 25.55 12.35Q24.38 13.52 22.35 14.25Q20.32 14.99 17.23 14.99L17.23 14.99L13.67 14.99L13.67 14.29L16.89 14.29Q18.95 14.29 20.02 13.34Q21.09 12.40 21.49 10.86Q21.89 9.32 21.89 7.53L21.89 7.53Q21.89 4.21 20.91 2.56Q19.93 0.92 17.55 0.92L17.55 0.92Q16.19 0.92 15.78 1.51Q15.38 2.11 15.38 3.93L15.38 3.93L15.38 21.08Q15.38 22.45 15.66 23.11Q15.94 23.77 16.75 23.98Q17.55 24.20 19.13 24.23L19.13 24.23L19.13 25Q18.04 24.96 16.33 24.93Q14.61 24.89 12.72 24.89L12.72 24.89Q11.21 24.89 9.78 24.93Q8.35 24.96 7.19 25L7.19 25L7.19 24.30Q8.31 24.23 8.87 24.02Q9.43 23.81 9.62 23.18Q9.82 22.55 9.82 21.29L9.82 21.29L9.82 3.93Q9.82 2.63 9.62 2.02Q9.43 1.41 8.85 1.18Q8.28 0.95 7.19 0.92L7.19 0.92ZM50.91 0.22L50.91 0.22Q50.77 2.00 50.71 3.65Q50.66 5.29 50.66 6.17L50.66 6.17Q50.66 6.94 50.70 7.64Q50.73 8.34 50.77 8.83L50.77 8.83L49.96 8.83Q49.40 5.89 48.54 4.17Q47.69 2.46 46.50 1.74Q45.31 1.02 43.70 1.02L43.70 1.02L42.89 1.02L42.89 21.01Q42.89 22.41 43.19 23.11Q43.48 23.81 44.29 24.04Q45.09 24.27 46.64 24.30L46.64 24.30L46.64 25Q45.55 24.96 43.75 24.93Q41.95 24.89 39.98 24.89L39.98 24.89Q38.06 24.89 36.35 24.93Q34.63 24.96 33.58 25L33.58 25L33.58 24.30Q35.16 24.27 35.96 24.04Q36.77 23.81 37.05 23.11Q37.33 22.41 37.33 21.01L37.33 21.01L37.33 1.02L36.56 1.02Q34.95 1.02 33.76 1.74Q32.57 2.46 31.73 4.16Q30.89 5.85 30.26 8.83L30.26 8.83L29.45 8.83Q29.52 8.34 29.54 7.64Q29.56 6.94 29.56 6.17L29.56 6.17Q29.56 5.29 29.50 3.65Q29.45 2.00 29.31 0.22L29.31 0.22Q30.92 0.25 32.83 0.29Q34.73 0.32 36.66 0.32Q38.59 0.32 40.13 0.32L40.13 0.32Q41.70 0.32 43.61 0.32Q45.52 0.32 47.44 0.29Q49.37 0.25 50.91 0.22ZM70.44 0.18L70.44 0.18L70.44 0.92Q68.86 0.92 68.42 1.22Q67.99 1.51 68.48 2.25L68.48 2.25L82.34 22.52Q83.04 23.50 83.46 23.84Q83.88 24.20 84.58 24.27L84.58 24.27L84.58 25Q83.88 24.96 82.55 24.91Q81.22 24.86 79.78 24.86L79.78 24.86Q78.21 24.86 76.58 24.91Q74.95 24.96 74.15 25L74.15 25L74.15 24.27Q75.76 24.27 76.23 24.04Q76.70 23.81 76.21 23.07L76.21 23.07L62.32 2.67Q61.65 1.65 61.23 1.30Q60.81 0.95 60.08 0.92L60.08 0.92L60.08 0.18Q60.81 0.22 62.23 0.27Q63.65 0.32 65.08 0.32L65.08 0.32Q66.66 0.32 68.11 0.27Q69.56 0.22 70.44 0.18ZM65.22 20.03L70.75 12.54Q70.75 12.54 70.82 12.77Q70.89 12.99 70.96 13.22Q71.03 13.45 71.03 13.45L71.03 13.45L67.53 18.24Q66.13 20.13 65.96 21.45Q65.78 22.76 66.57 23.48Q67.36 24.20 68.90 24.30L68.90 24.30L68.90 25Q68.41 24.96 67.65 24.95Q66.90 24.93 66.08 24.91Q65.26 24.89 64.54 24.89Q63.82 24.89 63.37 24.89L63.37 24.89Q62.39 24.89 61.55 24.91Q60.71 24.93 60.15 25L60.15 25L60.15 24.30Q61.37 23.88 62.63 22.81Q63.89 21.75 65.22 20.03L65.22 20.03ZM83 0.22L83 0.22L83 0.92Q81.85 1.23 80.71 2.25Q79.57 3.26 78.59 4.59L78.59 4.59L72.92 12.15Q72.92 12.15 72.80 11.70Q72.68 11.24 72.68 11.24L72.68 11.24L76.28 6.38Q77.61 4.70 77.87 3.51Q78.14 2.32 77.47 1.65Q76.81 0.99 75.37 0.92L75.37 0.92L75.37 0.22Q76.04 0.25 76.84 0.27Q77.65 0.29 78.43 0.31Q79.22 0.32 79.78 0.32L79.78 0.32Q80.80 0.32 81.64 0.29Q82.48 0.25 83 0.22ZM105.75 0.18L105.75 0.18L105.75 0.88Q104.98 1.20 104.18 2.13Q103.37 3.05 102.39 4.94L102.39 4.94L95.78 18.04L94.13 18.04L85.94 2.88Q85.31 1.69 84.80 1.30Q84.30 0.92 83.91 0.92L83.91 0.92L83.91 0.18Q84.86 0.29 85.85 0.32Q86.85 0.36 88.04 0.36L88.04 0.36Q89.58 0.36 91.37 0.31Q93.15 0.25 94.62 0.18L94.62 0.18L94.62 0.92Q93.75 0.92 93.05 1.06Q92.34 1.20 92.06 1.57Q91.78 1.93 92.20 2.74L92.20 2.74L97.73 13.38L96.65 14.78L100.25 7.53Q101.55 5.01 101.64 3.58Q101.72 2.14 100.94 1.53Q100.15 0.92 98.72 0.88L98.72 0.88L98.72 0.18Q99.91 0.22 100.95 0.25Q102.00 0.29 103.09 0.29L103.09 0.29Q103.86 0.29 104.54 0.25Q105.22 0.22 105.75 0.18ZM95.74 16.28L98.26 12.50L98.26 21.29Q98.26 22.55 98.45 23.18Q98.65 23.81 99.20 24.02Q99.77 24.23 100.89 24.30L100.89 24.30L100.89 25Q99.94 24.93 98.45 24.91Q96.97 24.89 95.50 24.89L95.50 24.89Q93.85 24.89 92.38 24.91Q90.91 24.93 90.07 25L90.07 25L90.07 24.30Q91.19 24.23 91.75 24.02Q92.31 23.81 92.50 23.18Q92.70 22.55 92.70 21.29L92.70 21.29L92.70 14.11L95.74 16.28ZM125.46 0.22L125.46 0.22L125.46 0.92L113.49 24.20L117.13 24.20Q118.32 24.20 119.52 23.81Q120.73 23.43 121.76 22.55Q122.80 21.68 123.53 20.22Q124.27 18.77 124.51 16.60L124.51 16.60L125.32 16.60Q125.21 17.79 125.21 19.68L125.21 19.68Q125.21 20.48 125.25 21.95Q125.28 23.43 125.46 25L125.46 25Q124.16 24.93 122.62 24.91Q121.08 24.89 119.56 24.89Q118.04 24.89 116.74 24.89L116.74 24.89Q114.47 24.89 111.98 24.91Q109.50 24.93 107.33 25L107.33 25L107.33 24.30L119.33 1.02L115.55 1.02Q114.22 1.02 113.08 1.37Q111.95 1.72 111.00 2.55Q110.06 3.37 109.43 4.75Q108.80 6.13 108.55 8.20L108.55 8.20L107.75 8.20Q107.82 7.71 107.83 7.01Q107.85 6.31 107.85 5.54L107.85 5.54Q107.85 4.73 107.80 3.26Q107.75 1.79 107.61 0.22L107.61 0.22Q108.76 0.25 110.16 0.29Q111.56 0.32 112.94 0.32Q114.33 0.32 115.48 0.32L115.48 0.32Q117.83 0.32 120.49 0.31Q123.15 0.29 125.46 0.22Z"/></g>
        
      </svg>
    